<?xml version="1.0" encoding="utf-8"?>
<!-- Generator: Adobe Illustrator 24.0.1, SVG Export Plug-In . SVG Version: 6.00 Build 0)  -->
<svg version="1.1" id="Warstwa_1" xmlns="http://www.w3.org/2000/svg" xmlns:xlink="http://www.w3.org/1999/xlink" x="0px" y="0px"
	 viewBox="0 0 128 128" style="enable-background:new 0 0 128 128;" xml:space="preserve">
<style type="text/css">
	.st0{fill:#5EA878;}
</style>
<path class="st0" d="M122.4,113.7H6c-2.2,0-4-1.8-4-4s1.8-4,4-4h116.3c2.2,0,4,1.8,4,4S124.6,113.7,122.4,113.7z"/>
<path class="st0" d="M60.4,75.3L60.4,75.3c-2,0-3.8-0.8-5.2-2.2L32.7,50.6c-2.9-2.9-2.9-7.6,0-10.4c2.9-2.9,7.6-2.9,10.4,0
	l17.3,17.3L91,26.9c2.9-2.9,7.6-2.9,10.4,0c2.9,2.9,2.9,7.6,0,10.4L65.6,73.1C64.3,74.5,62.4,75.3,60.4,75.3z"/>
<path class="st0" d="M115.1,89.6H89.5c-2.2,0-4-1.8-4-4c0-2.2,1.8-4,4-4h25.6c2,0,3.6-1.6,3.6-3.6V15.5c0-2-1.6-3.6-3.6-3.6H13.3
	c-2,0-3.6,1.6-3.6,3.6V78c0,2,1.6,3.6,3.6,3.6h24.7c2.2,0,4,1.8,4,4c0,2.2-1.8,4-4,4H13.3C6.9,89.6,1.7,84.4,1.7,78V15.5
	c0-6.4,5.2-11.6,11.6-11.6h101.8c6.4,0,11.6,5.2,11.6,11.6V78C126.7,84.4,121.5,89.6,115.1,89.6z"/>
</svg>
