<?xml version="1.0" encoding="utf-8"?>
<!-- Generator: Adobe Illustrator 24.0.1, SVG Export Plug-In . SVG Version: 6.00 Build 0)  -->
<svg version="1.1" id="Warstwa_2" xmlns="http://www.w3.org/2000/svg" xmlns:xlink="http://www.w3.org/1999/xlink" x="0px" y="0px"
	 viewBox="0 0 128 128" style="enable-background:new 0 0 128 128;" xml:space="preserve">
<style type="text/css">
	.st0{fill:#EC6E7F;}
</style>
<path class="st0" d="M71.8,24.4l0,31.3c0,3.9-3.1,7-7,7h-3.1c-3.9,0-7-3.1-7-7l0-31.3c0-3.9,3.1-7,7-7h3.1
	C68.6,17.4,71.8,20.5,71.8,24.4z M63.2,68.9c-5.6,0-10.2,4.6-10.2,10.2s4.6,10.2,10.2,10.2c5.6,0,10.2-4.6,10.2-10.2
	S68.8,68.9,63.2,68.9z"/>
<path class="st0" d="M114.8,89.5H97.2c-2.3,0-4.2-1.9-4.2-4.2s1.9-4.2,4.2-4.2h17.6c1.9,0,3.4-1.5,3.4-3.4V15.2
	c0-1.9-1.5-3.4-3.4-3.4H13c-1.9,0-3.4,1.5-3.4,3.4v62.5c0,1.9,1.5,3.4,3.4,3.4h16.7c2.3,0,4.2,1.9,4.2,4.2s-1.9,4.2-4.2,4.2H13
	c-6.5,0-11.8-5.3-11.8-11.8V15.2C1.2,8.7,6.5,3.4,13,3.4h101.8c6.5,0,11.8,5.3,11.8,11.8v62.5C126.6,84.2,121.3,89.5,114.8,89.5z"/>
<path class="st0" d="M122.1,113.5H5.7c-2.3,0-4.2-1.9-4.2-4.2c0-2.3,1.9-4.2,4.2-4.2h116.3c2.3,0,4.2,1.9,4.2,4.2
	C126.3,111.6,124.4,113.5,122.1,113.5z"/>
</svg>
